<?xml version="1.0" encoding="UTF-8" standalone="no"?>
<svg
   version="1.1"
   id="Layer_1"
   x="0px"
   y="0px"
   viewBox="0 0 4000 3200"
   style="enable-background:new 0 0 4000 3200;"
   xml:space="preserve"
   xmlns="http://www.w3.org/2000/svg"
   xmlns:svg="http://www.w3.org/2000/svg"><defs
   id="defs35" /> <path
   class="st0"
   d="M1076,1884c115.88-2.59,222.54-15.58,376-40c131.85-20.98,242.44-41.69,340-68c49-130.69,316-832,316-832  s162.44,444.07,248,680c118.6-34.35,221.07-69.45,328-112c-56.36-46.86-70.71-58.57-140-116c-47.42-39.3-62.22-109.33-45-162  c20.7-63.31,69.7-97.01,119-107c78.09-15.82,109.75-22.22,203-41c-89.51-237.2-262.11-699.86-289-771  c-31.08-82.23-116.37-139-204-139c-71.41,0-350,0-432,0c-86.29,0-170.32,53.68-205,142C1659.69,397.74,1128.25,1749.87,1076,1884z"
   id="path1"
   style="fill:#9770e0;fill-opacity:1" /> <path
   class="st0"
   d="M1216,1112c-184.59,99.12-250.01,136.19-364,209c-116.15,74.19-168.7,115.47-250,191  c-73.67,68.45-126.71,141.7-150,192c-17.96,38.79-19.73,69.31-16,96c3.84,27.49,18.04,59.17,36,80c17.96,20.83,43.4,44.05,68,56  c25.14,12.21,74.76,29.88,112,36c60.47,9.93,142.69,15.12,216,16c102.27,1.22,206.9-1.68,308-8c104.83-6.55,215-17.53,332-40  c141.12-27.1,297.04-63.03,416-92c122.18-29.76,302.26-78.51,424-116c135.2-41.63,274.23-87.9,426.66-147.03  c6.44,5.62,6.71,5.86,11.73,10.13c-13.26,123.95-16.7,156.25-26.38,244.91c-152.99,58.5-326.95,121.99-428,156  c-91.06,30.64-236.28,73.83-368,112c-64.81,18.78-215.69,58.36-316,80c-89.88,19.39-252.39,46.05-356,60  c-101.28,13.63-232.17,27.1-360,36c-143,9.95-250.95,3.04-332-8c-78.07-10.63-151.34-27.04-212-48c-58.4-20.18-96.56-39.26-132-68  c-33.01-26.76-52.4-51.02-64-76c-11.6-24.98-20.25-51.72-24-80c-4.91-37.02-2.88-67.12,0-88c5.35-38.8,18.35-77.59,32-108  c19.63-43.71,54.03-93.41,76-120c61.55-74.48,154.47-163.63,236-224c78.28-57.97,206.48-133.41,281-170  C905.41,1238.8,1016.32,1191.73,1216,1112z"
   id="path2"
   style="fill:#fab06b;fill-opacity:1" /> <path
   class="st0"
   d="M2753,1949c8.09,69.04,51.92,106.07,88,124c43.31,21.52,105.05,20.53,150-9c60.31-39.62,165-109,165-109  s311.03,813.45,352,921c13.82,36.29,9.21,71.27-12,100c-12.45,16.87-39.91,40-80,40c-119.23,0-211.85,0-429,0  c-90.87,0-151.59-63.93-172-121c-74.51-208.31-123-343-123-343H1512c0,0-74.61,201.78-127,343c-26.62,71.75-94.3,121-173,121  c-160.88,0-331.76,0-424,0c-36.12,0-63.07-18.51-80-40c-15.37-19.52-26.52-59.59-16-88c45.32-122.37,192-500,192-500  s212.42-14.51,300-24c87.58-9.49,215-27.59,308-44c102.5-18.08,257.15-50.78,384-84c126.43-33.11,226.46-61.15,284-80  c114.73,0,300.91,0,388,0c-22.71-64.67-17.5-49.92-41.5-116.88C2564.87,2019.6,2658.19,1986.47,2753,1949z"
   id="path3"
   style="fill:#9770e0;fill-opacity:1" /> <path
   class="st0"
   d="M2614,1325c48.72,39.86,179.01,146.2,254,207c12.56,10.18,22.04,27.63,20,48c-13.48,134.81-28.73,277.03-36,348  c-2.7,26.34,15.66,48.46,36,56c21.03,7.8,38.37,3.67,56-8c115.82-76.65,244.35-162.52,276-184c19.63-13.33,40.95-14.9,56-8  c30.92,14.18,262.18,117.89,311,140c18.48,8.37,43.63,3.23,58-10c15.89-14.63,22.44-34.67,17-56c-14.69-57.55-66.62-263.59-82-322  c-6.77-25.69-5.78-43.39,12-64c39.5-45.77,199.78-228.94,220-252c10.28-11.72,16.57-32.44,11-52c-5.74-20.16-26.71-39.43-51-40  c-47.9-1.12-280.85-6.7-332-8c-18.8-0.48-37.49-8.9-48-28c-31.96-58.05-151.52-277.09-160-292c-8.48-14.91-25.12-28-48-28  c-21.33,0-41.98,11.58-52,36c-30.01,73.09-94.91,240.53-124,316c-7.86,20.39-24.24,32.18-44,36c-65.44,12.67-249.48,48.34-324,64  c-28.87,6.07-44.36,26.92-47,47C2590.28,1291.7,2595.5,1309.86,2614,1325z"
   id="path4"
   style="fill:#fab06b;fill-opacity:1" /> </svg>
