<?xml version="1.0" encoding="UTF-8" standalone="no"?>
<svg
   version="1.1"
   id="asteria"
   x="0px"
   y="0px"
   viewBox="0 0 4000 3200"
   style="enable-background:new 0 0 4000 3200;"
   xml:space="preserve"
   xmlns="http://www.w3.org/2000/svg"
   xmlns:svg="http://www.w3.org/2000/svg"><defs
   id="defs35" />     <style
   type="text/css"
   id="style1">
	.st0{fill-rule:evenodd;clip-rule:evenodd;fill:none;}
</style><g
   id="g2"
   style="display:inline"><path
     class="st0"
     d="m 1076,1884 c 115.88,-2.59 222.5399,-15.5806 376,-40 131.8499,-20.9806 242.44,-41.69 340,-68 49,-130.69 316,-832 316,-832 0,0 162.44,444.07 248,680 118.6,-34.35 221.07,-69.45 328,-112 -56.36,-46.86 -70.709,-58.5712 -140,-116 -47.419,-39.3012 -62.2206,-109.3302 -45,-162 20.6994,-63.3102 69.6997,-97.0115 119,-107 78.0897,-15.8215 109.75,-22.22 203,-41 C 2731.49,848.8 2558.8892,386.14029 2532,315 2500.9192,232.77029 2415.63,176 2328,176 h -432 c -86.29,0 -170.3204,53.67983 -205,142 -31.3104,79.73983 -562.75,1431.87 -615,1566 z"
     id="path1"
     style="fill:#9770e0;fill-opacity:1" /><path
     class="st0"
     d="m 1216,1112 c -184.59,99.12 -249.55065,136.9142 -364,209 -91.30225,57.5066 -178.89524,125.3093 -250,191 -69.7692,64.4568 -123.37778,136.7901 -150,192 -18.56636,38.5034 -19.72913,69.3099 -16,96 3.84087,27.4899 18.04,59.17 36,80 17.96,20.83 43.39955,44.0509 68,56 25.13955,12.2109 74.75954,29.8828 112,36 60.46954,9.9328 142.68996,15.1232 216,16 102.26996,1.2232 206.8999,-1.6816 308,-8 104.8299,-6.5516 214.9998,-17.531 332,-40 141.1198,-27.101 297.0407,-63.0273 416,-92 122.1807,-29.7573 302.2593,-78.5122 424,-116 135.1993,-41.6322 274.23,-87.9 426.66,-147.03 6.44,5.62 6.71,5.86 11.73,10.13 -13.26,123.95 -16.7,156.25 -26.38,244.91 -152.99,58.5 -326.9488,121.9936 -428,156 -91.0588,30.6436 -236.2799,73.8305 -368,112 -64.8099,18.7805 -215.69,58.36 -316,80 -89.88,19.39 -252.3896,46.0531 -356,60 -101.2796,13.6331 -232.1698,27.1029 -360,36 -142.9998,9.9529 -250.94972,3.038 -332,-8 -78.06972,-10.632 -151.34014,-27.0396 -212,-48 -58.40014,-20.1796 -96.55762,-39.2629 -132,-68 -33.00762,-26.7629 -52.4,-51.02 -64,-76 -11.6,-24.98 -20.24955,-51.7201 -24,-80 -4.90955,-37.0201 -2.87941,-67.1199 0,-88 5.35059,-38.7999 18.34656,-77.5915 32,-108 19.62656,-43.7115 53.64619,-93.7319 76,-120 57.16347,-67.1732 158.49783,-161.5924 240,-222 85.0111,-63.0083 194.05365,-129.1691 277,-172 C 904.27881,1236.5543 1018.3871,1186.2178 1216,1112 Z"
     id="path2"
     style="fill:#fab06b;fill-opacity:1" /><path
     class="st0"
     d="m 2753,1949 c 8.09,69.04 51.9195,106.0711 88,124 43.3095,21.5211 105.05,20.53 150,-9 60.31,-39.62 165,-109 165,-109 0,0 311.0328,813.4489 352,921 13.8228,36.2889 9.2082,71.2687 -12,100 -12.4518,16.8687 -39.91,40 -80,40 h -429 c -90.87,0 -151.5877,-63.9308 -172,-121 -74.5077,-208.3108 -123,-343 -123,-343 H 1512 c 0,0 -74.6088,201.7805 -127,343 -26.6188,71.7505 -94.3,121 -173,121 H 788 c -36.12,0 -63.07259,-18.508 -80,-40 -15.37259,-19.518 -26.52122,-59.5905 -16,-88 45.31878,-122.3705 192,-500 192,-500 0,0 212.42,-14.51 300,-24 87.58,-9.49 214.9995,-27.5929 308,-44 102.4995,-18.0829 257.15,-50.78 384,-84 126.43,-33.11 226.46,-61.15 284,-80 h 388 c -22.71,-64.67 -17.5,-49.92 -41.5,-116.88 58.37,-19.52 151.69,-52.65 246.5,-90.12 z"
     id="path3"
     style="fill:#9770e0;fill-opacity:1" /><path
     class="st0"
     d="m 2614,1325 c 48.7185,39.8619 179.0086,146.2017 254,207 12.5586,10.1817 22.0373,27.6297 20,48 -13.4827,134.8097 -28.7287,277.0301 -36,348 -2.6987,26.3401 15.6607,48.4582 36,56 21.0307,7.7982 38.369,3.6685 56,-8 115.819,-76.6515 244.3522,-162.5168 276,-184 19.6322,-13.3268 40.9505,-14.9011 56,-8 30.9205,14.1789 262.18,117.89 311,140 18.48,8.37 43.63,3.23 58,-10 15.89,-14.63 22.4432,-34.6708 17,-56 -14.6868,-57.5508 -66.6164,-263.5909 -82,-322 -6.7664,-25.6909 -5.7826,-43.3923 12,-64 39.4974,-45.7723 199.7787,-228.9411 220,-252 10.2787,-11.7211 16.5696,-32.4399 11,-52 -5.7404,-20.1599 -26.71,-39.4314 -51,-40 -47.9,-1.1214 -280.85,-6.6984 -332,-8 -18.8,-0.4784 -37.4867,-8.9018 -48,-28 -31.9567,-58.0518 -151.52,-277.09 -160,-292 -8.48,-14.91 -25.12,-28 -48,-28 -21.33,0 -41.9758,11.58174 -52,36 -30.0058,73.09174 -94.91,240.53 -124,316 -7.86,20.39 -24.2408,32.1757 -44,36 -65.4408,12.6657 -249.4805,48.3378 -324,64 -28.8705,6.0678 -44.3607,26.9199 -47,47 -2.7207,20.6999 2.4985,38.8619 21,54 z"
     id="path4"
     style="fill:#fab06b;fill-opacity:1" /></g><g
   id="g1"
   transform="translate(0.28722367,0.10213348)"
   style="display:none;fill:#000000;fill-opacity:1"><path
     class="st0"
     d="m 1898.15,176 c 122.69,0 222.15,99.46 222.15,222.15 0,122.69 -99.46,222.15 -222.15,222.15 C 1775.46,620.3 1676,520.85 1676,398.15 1676,275.46 1775.46,176 1898.15,176 Z"
     id="path5"
     style="fill:#000000;fill-opacity:1" /><path
     class="st0"
     d="m 2956,1048 c 30.93,0 56,25.07 56,56 0,30.93 -25.07,56 -56,56 -30.93,0 -56,-25.07 -56,-56 0,-30.93 25.07,-56 56,-56 z"
     id="path6"
     style="fill:#000000;fill-opacity:1" /><path
     class="st0"
     d="m 2648,1224 c 30.93,0 56,25.07 56,56 0,30.93 -25.07,56 -56,56 -30.93,0 -56,-25.07 -56,-56 0,-30.93 25.07,-56 56,-56 z"
     id="path7"
     style="fill:#000000;fill-opacity:1" /><path
     class="st0"
     d="m 2648,1124 c 86.16,0 156,69.84 156,156 0,86.16 -69.84,156 -156,156 -86.16,0 -156,-69.84 -156,-156 0,-86.16 69.84,-156 156,-156 z"
     id="path8"
     style="fill:#000000;fill-opacity:1" /><path
     class="st0"
     d="m 3184,772 c 30.93,0 56,25.07 56,56 0,30.93 -25.07,56 -56,56 -30.93,0 -56,-25.07 -56,-56 0,-30.93 25.07,-56 56,-56 z"
     id="path9"
     style="fill:#000000;fill-opacity:1" /><path
     class="st0"
     d="m 3440,1008 c 30.93,0 56,25.07 56,56 0,30.93 -25.07,56 -56,56 -30.93,0 -56,-25.07 -56,-56 0,-30.93 25.07,-56 56,-56 z"
     id="path10"
     style="fill:#000000;fill-opacity:1" /><path
     class="st0"
     d="m 3769,1128 c 30.93,0 56,25.07 56,56 0,30.93 -25.07,56 -56,56 -30.93,0 -56,-25.07 -56,-56 0,-30.93 25.07,-56 56,-56 z"
     id="path11"
     style="fill:#000000;fill-opacity:1" /><path
     class="st0"
     d="m 3632,1456 c 30.93,0 56,25.07 56,56 0,30.93 -25.07,56 -56,56 -30.93,0 -56,-25.07 -56,-56 0,-30.93 25.07,-56 56,-56 z"
     id="path12"
     style="fill:#000000;fill-opacity:1" /><path
     class="st0"
     d="m 3608,1816 c 30.93,0 56,25.07 56,56 0,30.93 -25.07,56 -56,56 -30.93,0 -56,-25.07 -56,-56 0,-30.93 25.07,-56 56,-56 z"
     id="path13"
     style="fill:#000000;fill-opacity:1" /><path
     class="st0"
     d="m 3256,1780 c 30.93,0 56,25.07 56,56 0,30.93 -25.07,56 -56,56 -30.93,0 -56,-25.07 -56,-56 0,-30.93 25.07,-56 56,-56 z"
     id="path14"
     style="fill:#000000;fill-opacity:1" /><path
     class="st0"
     d="m 2832,1519 c 30.93,0 56,25.07 56,56 0,30.93 -25.07,56 -56,56 -30.93,0 -56,-25.07 -56,-56 0,-30.93 25.07,-56 56,-56 z"
     id="path15"
     style="fill:#000000;fill-opacity:1" /><path
     class="st0"
     d="m 2908,1776 c 86.16,0 156,69.84 156,156 0,86.16 -69.84,156 -156,156 -86.16,0 -156,-69.84 -156,-156 0,-86.16 69.84,-156 156,-156 z"
     id="path16"
     style="fill:#000000;fill-opacity:1" /><path
     class="st0"
     d="m 2908,1876 c 30.93,0 56,25.07 56,56 0,30.93 -25.07,56 -56,56 -30.93,0 -56,-25.07 -56,-56 0,-30.93 25.07,-56 56,-56 z"
     id="path17"
     style="fill:#000000;fill-opacity:1" /><path
     class="st0"
     d="m 2386.52,1614.82 28.92,95.73 -172.31,52.06 -28.92,-95.73 z"
     id="path18"
     style="fill:#000000;fill-opacity:1" /><path
     class="st0"
     d="m 2753.33,1486.12 35.36,93.54 -168.37,63.64 -35.36,-93.54 z"
     id="path19"
     style="fill:#000000;fill-opacity:1" /><path
     class="st0"
     d="m 2850.12,1943.46 -99.45,-10.47 42.69,-405.31 99.45,10.47 z"
     id="path20"
     style="fill:#000000;fill-opacity:1" /><path
     class="st0"
     d="m 1909.83,1746.19 24.5,96.95 -174.52,44.09 -24.5,-96.95 z"
     id="path21"
     style="fill:#000000;fill-opacity:1" /><path
     class="st0"
     d="m 1197.94,1877.85 5.49,99.85 -179.73,9.88 -5.49,-99.85 z"
     id="path22"
     style="fill:#000000;fill-opacity:1" /><path
     class="st0"
     d="m 3110.01,1865.21 55.44,83.23 -149.81,99.79 -55.44,-83.23 z"
     id="path23"
     style="fill:#000000;fill-opacity:1" /><path
     class="st0"
     d="m 2326.15,176 c 122.69,0 222.15,99.46 222.15,222.15 0,122.69 -99.46,222.15 -222.15,222.15 C 2203.46,620.3 2104,520.85 2104,398.15 2104,275.46 2203.46,176 2326.15,176 Z"
     id="path24"
     style="fill:#000000;fill-opacity:1" /><path
     class="st0"
     d="m 3416,2816 c 55.23,0 100,44.77 100,100 0,55.23 -44.77,100 -100,100 -55.23,0 -100,-44.77 -100,-100 0,-55.23 44.77,-100 100,-100 z"
     id="path25"
     style="fill:#000000;fill-opacity:1" /><path
     class="st0"
     d="m 788,2816 c 55.23,0 100,44.77 100,100 0,55.23 -44.77,100 -100,100 -55.23,0 -100,-44.77 -100,-100 0,-55.23 44.77,-100 100,-100 z"
     id="path26"
     style="fill:#000000;fill-opacity:1" /><path
     class="st0"
     d="m 2988,2648 c 101.62,0 184,82.38 184,184 0,101.62 -82.38,184 -184,184 -101.62,0 -184,-82.38 -184,-184 0,-101.62 82.38,-184 184,-184 z"
     id="path27"
     style="fill:#000000;fill-opacity:1" /><path
     class="st0"
     d="m 1212,2648 c 101.62,0 184,82.38 184,184 0,101.62 -82.38,184 -184,184 -101.62,0 -184,-82.38 -184,-184 0,-101.62 82.38,-184 184,-184 z"
     id="path28"
     style="fill:#000000;fill-opacity:1" /><path
     class="st0"
     d="m 1036.86,2276.16 7.43,99.72 -179.5,13.38 -7.43,-99.72 z"
     id="path29"
     style="fill:#000000;fill-opacity:1" /><path
     class="st0"
     d="m 2186.59,2042.9 28.82,95.76 -172.36,51.88 -28.82,-95.76 z"
     id="path30"
     style="fill:#000000;fill-opacity:1" /><path
     class="st0"
     d="m 2771.99,1834.83 35.76,93.39 -168.1,64.37 -35.76,-93.39 z"
     id="path31"
     style="fill:#000000;fill-opacity:1" /><path
     class="st0"
     d="m 2661.03,1492.59 63.17,-77.52 139.54,113.71 -63.17,77.52 z"
     id="path32"
     style="fill:#000000;fill-opacity:1" /><path
     class="st0"
     d="m 2570.19,1910.86 34.32,93.92 -169.06,61.79 -34.33,-93.92 z"
     id="path33"
     style="fill:#000000;fill-opacity:1" /><path
     class="st0"
     d="m 1614.55,2195.58 17.7,98.42 -177.16,31.85 -17.7,-98.42 z"
     id="path34"
     style="fill:#000000;fill-opacity:1" /><path
     class="st0"
     d="m 2841.9,1081.72 19.45,98.09 -176.56,35.01 -19.45,-98.09 z"
     id="path35"
     style="fill:#000000;fill-opacity:1" /></g></svg>
