<?xml version="1.0" encoding="UTF-8" standalone="no"?>
<!-- Created with Inkscape (http://www.inkscape.org/) -->

<svg
   version="1.1"
   id="svg2"
   xml:space="preserve"
   width="2666.6667"
   height="2666.6667"
   viewBox="0 0 2666.6667 2666.6667"
   sodipodi:docname="A.ai.svg"
   inkscape:version="1.1.2 (0a00cf5339, 2022-02-04)"
   xmlns:inkscape="http://www.inkscape.org/namespaces/inkscape"
   xmlns:sodipodi="http://sodipodi.sourceforge.net/DTD/sodipodi-0.dtd"
   xmlns="http://www.w3.org/2000/svg"
   xmlns:svg="http://www.w3.org/2000/svg"><defs
     id="defs6"><clipPath
       clipPathUnits="userSpaceOnUse"
       id="clipPath16"><path
         d="M 0,0 H 2000 V 2000 H 0 Z"
         id="path14" /></clipPath><linearGradient
       x1="0"
       y1="0"
       x2="1"
       y2="0"
       gradientUnits="userSpaceOnUse"
       gradientTransform="matrix(317.19153,-586.63922,586.63922,317.19153,1289.5332,1533.8462)"
       spreadMethod="pad"
       id="linearGradient46"><stop
         style="stop-opacity:1;stop-color:#fcee21"
         offset="0"
         id="stop38" /><stop
         style="stop-opacity:1;stop-color:#fcee21"
         offset="0.00126839"
         id="stop40" /><stop
         style="stop-opacity:1;stop-color:#f15a24"
         offset="0.999999"
         id="stop42" /><stop
         style="stop-opacity:1;stop-color:#f15a24"
         offset="1"
         id="stop44" /></linearGradient></defs><sodipodi:namedview
     id="namedview4"
     pagecolor="#ffffff"
     bordercolor="#666666"
     borderopacity="1.0"
     inkscape:pageshadow="2"
     inkscape:pageopacity="0.0"
     inkscape:pagecheckerboard="0"
     showgrid="false"
     inkscape:zoom="0.70710678"
     inkscape:cx="1322.2897"
     inkscape:cy="1166.7262"
     inkscape:window-width="1920"
     inkscape:window-height="1026"
     inkscape:window-x="0"
     inkscape:window-y="0"
     inkscape:window-maximized="1"
     inkscape:current-layer="g8" /><g
     id="g8"
     inkscape:groupmode="layer"
     inkscape:label="A"
     transform="matrix(1.3333333,0,0,-1.3333333,0,2666.6667)"><g
       id="g10"><g
         id="g12"
         clip-path="url(#clipPath16)"><g
           id="g18"
           transform="translate(965.5815,578.8145)"><path
             d="m 0,0 c 9.909,0 97.418,-0.814 208.357,15.139 102.351,15.065 168.29,32.56 239.166,54.965 9.394,3.632 11.057,2.905 15.937,-5.867 10.31,-18.528 20.595,-37.071 30.807,-55.654 2.516,-4.58 5.561,-8.132 11.304,-8.135 41.678,-0.02 83.357,-0.054 125.035,-0.082 0.246,0 0.493,0.011 0.739,0.03 4.581,0.356 5.337,2.876 3.612,6.61 -0.824,1.783 -1.927,3.437 -2.91,5.146 -51.228,89.11 -102.465,178.214 -153.68,267.332 -8.798,15.309 -10.388,15.604 -24.025,4.115 C 391.694,230.816 327.756,179.7 258.816,135.249 189.899,90.812 120.418,52.519 40.336,22.975 25.435,17.529 -0.121,9.445 -3.726,7.982 -7.332,6.52 -7.665,0 0,0"
             style="fill:#93278f;fill-opacity:1;fill-rule:nonzero;stroke:none"
             id="path20" /></g><g
           id="g22"
           transform="translate(1527.2568,1152.957)"><path
             d="m 0,0 c -3.403,-2.176 -6.306,-3.982 -9.158,-5.865 -61.416,-40.555 -126.804,-73.031 -197.259,-94.499 -93.949,-28.627 -189.598,-43.441 -287.965,-30.375 -34.166,4.538 -66.858,14.276 -96.701,32.275 -44.156,26.631 -63.213,67.717 -54.921,118.603 3.771,23.14 11.748,44.877 22.651,65.442 26.928,50.793 56.639,99.991 86.582,149.044 1.087,1.781 1.776,4.194 4.534,4.347 2.838,-1.159 3.658,-3.939 4.974,-6.217 29.848,-51.686 59.648,-103.399 89.462,-155.105 18.11,-31.409 38.524,-67.63 56.567,-99.078 2.777,-4.84 5.806,-8.426 12.191,-7.25 36.061,6.642 72.15,13.118 108.207,19.771 9.816,1.811 10.226,3.027 5.079,11.95 -89.456,155.114 -181.177,315.062 -270.639,470.173 -0.985,1.709 -1.932,3.448 -3.031,5.083 -2.188,3.253 -4.621,3.491 -7.011,0.236 -1.016,-1.384 -1.782,-2.953 -2.652,-4.444 -68.001,-116.485 -135.084,-233.497 -201.517,-350.882 -16.22,-28.66 -29.391,-58.599 -36.785,-90.814 -15.05,-65.563 -2.516,-124.26 44.191,-174.133 26.035,-27.8 57.54,-47.938 92.215,-62.965 74.671,-32.359 152.984,-43.738 233.91,-38.942 9.973,0.591 19.932,1.457 29.899,2.194 -27.172,-17.026 -55.341,-31.006 -84.658,-42.648 -45.253,-17.971 -91.961,-30.676 -140.165,-37.332 -37.912,-5.234 -76.09,-6.868 -114.363,-4.844 -34.098,1.802 -67.469,7.681 -99.902,18.425 -44.469,14.731 -84.512,37.538 -121.019,66.767 -9.151,7.327 -9.572,7.088 -15.23,-2.728 -35.81,-62.128 -71.622,-124.255 -107.438,-186.38 -25.226,-43.757 -40.431,-69.408 -76.331,-132.542 -2.974,-6.1 -0.515,-9.016 5.938,-9.259 11.921,0 94.938,0.125 124.631,0.125 3.579,0 7.791,-0.09 10.487,3.299 l 73.325,113.216 c 0,0 155.354,-35.055 335.505,7.605 151.14,35.79 296.14,96.79 444.766,269.108 49.383,57.255 98.465,107.164 139.292,170.93 C -1.024,-5.656 1.009,-3.677 0,0"
             style="fill:#93278f;fill-opacity:1;fill-rule:nonzero;stroke:none"
             id="path24" /></g></g></g><g
       id="g26"><g
         id="g28"><g
           id="g34"><g
             id="g36"><path
               d="m 1457.187,1169.035 -102.513,-54.61 115.227,-14.649 20.258,-114.371 49.539,105.058 115.036,-16.075 -84.611,79.578 50.835,104.436 -101.828,-55.875 -83.617,80.621 z"
               style="fill:url(#linearGradient46);stroke:none"
               id="path48" /></g></g></g></g></g></svg>
